<?xml version="1.0" encoding="utf-8"?>
<!-- Generator: Adobe Illustrator 22.1.0, SVG Export Plug-In . SVG Version: 6.00 Build 0)  -->
<svg version="1.1" id="レイヤー_1" xmlns="http://www.w3.org/2000/svg" xmlns:xlink="http://www.w3.org/1999/xlink" x="0px"
	 y="0px" viewBox="0 0 500 500" style="enable-background:new 0 0 500 500;" xml:space="preserve">
<style type="text/css">
	.st0{fill:#00A4DE;}
	.st1{fill:#FFFFFF;}
</style>
<rect class="st0" width="500" height="500"/>
<path class="st1" d="M278.2,258.1c-9.1-10.1-21.7-15.8-37.8-17c14.4-3.9,24.8-9.6,31.4-17.3s9.8-17.8,9.8-30.7
	c0.2-9.5-2.1-18.8-6.6-27.1c-4.5-7.9-11.2-14.3-19.2-18.6c-7.3-4-16-6.9-26.2-8.6s-28.1-2.4-53.7-2.4h-62.3v227.2h64.2
	c25.8,0,44.4-0.9,55.8-2.6c11.4-1.8,20.9-4.8,28.6-8.9c9.3-4.8,16.9-12.2,21.9-21.4c5.1-9.2,7.7-19.9,7.7-32.1
	C291.8,281.7,287.3,268.2,278.2,258.1z M171.2,186.7h13.3c15.4,0,25.7,1.7,31,5.2c5.3,3.5,7.9,9.5,7.9,18s-2.9,14-8.5,17.4
	s-16.1,5-31.4,5h-12.3L171.2,186.7L171.2,186.7z M224,317c-6.1,3.7-16.5,5.5-31.1,5.5h-21.7V273h22.6c15,0,25.4,1.9,30.9,5.7
	s8.4,10.4,8.4,20s-3,14.7-9.2,18.4L224,317z"/>
<path class="st1" d="M357.6,306.1c-15.9,0-28.8,12.9-28.8,28.8s12.9,28.8,28.8,28.8c15.9,0,28.8-12.9,28.8-28.8c0,0,0,0,0,0
	C386.4,319,373.5,306.1,357.6,306.1z"/>
<rect x="332.6" y="136.4" class="st1" width="50" height="151.5"/>
</svg>
